<?xml version="1.0" encoding="UTF-8"?>
<svg id="logosandtypes_com" data-name="logosandtypes com" xmlns="http://www.w3.org/2000/svg" viewBox="0 0 150 150">
  <defs>
    <style>
      .cls-1 {
        fill: #00b3c6;
      }

      .cls-2 {
        fill: none;
      }

      .cls-3 {
        fill: #1a396e;
      }

      .cls-4 {
        fill: #63bb69;
      }

      .cls-5 {
        fill: #3faee2;
      }
    </style>
  </defs>
  <path class="cls-2" d="M0,0H150V150H0V0Z"/>
  <path class="cls-5" d="M89.22,8.03c-3.39-.58-6.83-.9-10.27-.95C48.5,6.45,21.22,25.79,11.73,54.73l50.71,1.73,25.68-22.7,1.1-25.72Z"/>
  <path class="cls-1" d="M142.11,77.23c-.24-35.35-23.74-52.44-23.74-52.44l-30.21,8.96-25.72,22.7,.97,13.7,21.79,54.7,30.75,4.96c28.7-22.66,26.24-52.59,26.24-52.59"/>
  <path class="cls-4" d="M63.41,70.15l-55.35,8.35c2.78,38,28.05,52.5,28.05,52.5,25.25,17.61,48.51,11.46,48.51,11.46l.54-17.63-21.75-54.68Z"/>
  <polygon class="cls-3" points="88.12 33.75 61.38 41.67 62.44 56.45 87.1 57.29 88.12 33.75"/>
  <polygon class="cls-3" points="63.41 70.15 67.1 121.9 85.2 124.83 87 66.61 63.41 70.15"/>
</svg>